<?xml version="1.0" standalone="no"?>
<!DOCTYPE svg PUBLIC "-//W3C//DTD SVG 20010904//EN"
 "http://www.w3.org/TR/2001/REC-SVG-20010904/DTD/svg10.dtd">
<svg version="1.0" xmlns="http://www.w3.org/2000/svg"
 width="690.000000pt" height="690.000000pt" viewBox="0 0 690.000000 690.000000"
 preserveAspectRatio="xMidYMid meet">

<g transform="translate(0.000000,690.000000) scale(0.100000,-0.100000)"
fill="#000000" stroke="none">
<path d="M2500 5405 c0 -1 66 -120 146 -265 80 -144 142 -266 137 -270 -4 -4
-77 -36 -160 -71 -84 -35 -153 -67 -153 -71 0 -4 100 -121 222 -260 122 -139
292 -333 377 -430 85 -98 156 -176 158 -175 1 2 -54 147 -122 323 -69 175
-125 324 -125 329 0 6 52 28 115 50 63 22 115 42 115 45 0 3 -83 178 -183 390
-182 383 -183 384 -217 391 -32 6 -310 19 -310 14z"/>
<path d="M1705 3703 c-76 -12 -194 -47 -275 -82 -348 -150 -599 -475 -655
-848 -8 -54 -15 -104 -15 -110 0 -10 -32 -13 -128 -13 -143 0 -163 -7 -182
-64 -14 -45 8 -102 45 -116 15 -6 82 -10 150 -10 l123 0 7 -42 c44 -262 197
-520 409 -687 445 -351 1086 -309 1477 96 102 106 156 184 216 309 59 125 93
261 100 402 l6 112 46 34 c63 46 153 90 241 118 111 34 283 32 396 -5 76 -25
182 -85 232 -130 19 -18 22 -30 22 -97 0 -278 127 -560 346 -769 337 -322 820
-398 1243 -195 326 156 554 458 615 817 l7 37 138 0 c135 0 138 1 162 26 34
36 33 95 -4 131 -26 26 -31 27 -154 31 -71 2 -129 5 -131 7 -1 1 -7 38 -12 82
-45 358 -260 675 -575 844 -98 53 -214 94 -321 115 -133 25 -365 15 -494 -20
-198 -55 -373 -159 -512 -304 -124 -130 -211 -274 -258 -429 -12 -40 -24 -73
-27 -73 -3 0 -17 8 -31 19 -95 66 -262 119 -402 128 -162 9 -357 -37 -498
-120 l-59 -35 -23 75 c-108 352 -406 638 -770 739 -81 22 -119 26 -260 29 -91
2 -178 1 -195 -2z m3554 -209 c323 -81 581 -341 663 -671 31 -125 31 -323 0
-443 -90 -339 -356 -598 -692 -674 -343 -77 -702 49 -918 321 -131 165 -191
327 -199 539 -6 149 9 249 57 372 79 205 250 393 445 489 200 100 422 123 644
67z m-3201 10 c343 -71 614 -330 708 -680 29 -108 27 -352 -4 -459 -88 -303
-310 -539 -597 -634 -664 -220 -1320 345 -1200 1034 63 362 352 662 710 738
95 21 286 21 383 1z"/>
<path d="M4351 2984 c-48 -61 -91 -247 -91 -396 0 -225 69 -405 210 -548 72
-72 174 -140 212 -140 25 0 60 31 71 63 11 31 -11 64 -65 94 -125 71 -228 219
-264 379 -26 117 -16 271 25 392 17 51 31 104 31 117 0 60 -91 88 -129 39z"/>
<path d="M1191 3001 c-26 -26 -60 -119 -83 -231 -41 -197 -7 -427 89 -589 49
-82 140 -177 222 -230 78 -50 119 -54 150 -15 40 51 25 89 -52 132 -29 16 -80
59 -114 95 -167 178 -208 448 -109 711 15 38 24 78 20 88 -16 53 -87 75 -123
39z"/>
</g>
</svg>
